<svg xmlns="http://www.w3.org/2000/svg" width="700" height="500"><g transform="translate(40,20)"><g class="x axis" transform="translate(0,450)"><g class="tick" style="opacity: 1;" transform="translate(0,0)"><line y2="6" x2="0"></line><text dy=".71em" style="text-anchor: middle;" y="9" x="0">0.0</text></g><g class="tick" style="opacity: 1;" transform="translate(64,0)"><line y2="6" x2="0"></line><text dy=".71em" style="text-anchor: middle;" y="9" x="0">0.5</text></g><g class="tick" style="opacity: 1;" transform="translate(128,0)"><line y2="6" x2="0"></line><text dy=".71em" style="text-anchor: middle;" y="9" x="0">1.0</text></g><g class="tick" style="opacity: 1;" transform="translate(192,0)"><line y2="6" x2="0"></line><text dy=".71em" style="text-anchor: middle;" y="9" x="0">1.5</text></g><g class="tick" style="opacity: 1;" transform="translate(256,0)"><line y2="6" x2="0"></line><text dy=".71em" style="text-anchor: middle;" y="9" x="0">2.0</text></g><g class="tick" style="opacity: 1;" transform="translate(320,0)"><line y2="6" x2="0"></line><text dy=".71em" style="text-anchor: middle;" y="9" x="0">2.5</text></g><g class="tick" style="opacity: 1;" transform="translate(384,0)"><line y2="6" x2="0"></line><text dy=".71em" style="text-anchor: middle;" y="9" x="0">3.0</text></g><g class="tick" style="opacity: 1;" transform="translate(448,0)"><line y2="6" x2="0"></line><text dy=".71em" style="text-anchor: middle;" y="9" x="0">3.5</text></g><g class="tick" style="opacity: 1;" transform="translate(512,0)"><line y2="6" x2="0"></line><text dy=".71em" style="text-anchor: middle;" y="9" x="0">4.0</text></g><g class="tick" style="opacity: 1;" transform="translate(576,0)"><line y2="6" x2="0"></line><text dy=".71em" style="text-anchor: middle;" y="9" x="0">4.5</text></g><g class="tick" style="opacity: 1;" transform="translate(640,0)"><line y2="6" x2="0"></line><text dy=".71em" style="text-anchor: middle;" y="9" x="0">5.0</text></g><path class="domain" d="M0,6V0H640V6"></path><text class="label" x="640" y="-6" style="text-anchor: end;">Weight (kg)</text></g><g class="y axis"><g class="tick" style="opacity: 1;" transform="translate(0,450)"><line x2="-6" y2="0"></line><text dy=".32em" style="text-anchor: end;" x="-9" y="0">0.0</text></g><g class="tick" style="opacity: 1;" transform="translate(0,400)"><line x2="-6" y2="0"></line><text dy=".32em" style="text-anchor: end;" x="-9" y="0">0.5</text></g><g class="tick" style="opacity: 1;" transform="translate(0,350)"><line x2="-6" y2="0"></line><text dy=".32em" style="text-anchor: end;" x="-9" y="0">1.0</text></g><g class="tick" style="opacity: 1;" transform="translate(0,300.00000000000006)"><line x2="-6" y2="0"></line><text dy=".32em" style="text-anchor: end;" x="-9" y="0">1.5</text></g><g class="tick" style="opacity: 1;" transform="translate(0,250)"><line x2="-6" y2="0"></line><text dy=".32em" style="text-anchor: end;" x="-9" y="0">2.0</text></g><g class="tick" style="opacity: 1;" transform="translate(0,200)"><line x2="-6" y2="0"></line><text dy=".32em" style="text-anchor: end;" x="-9" y="0">2.5</text></g><g class="tick" style="opacity: 1;" transform="translate(0,150.00000000000003)"><line x2="-6" y2="0"></line><text dy=".32em" style="text-anchor: end;" x="-9" y="0">3.0</text></g><g class="tick" style="opacity: 1;" transform="translate(0,100)"><line x2="-6" y2="0"></line><text dy=".32em" style="text-anchor: end;" x="-9" y="0">3.5</text></g><g class="tick" style="opacity: 1;" transform="translate(0,50.00000000000002)"><line x2="-6" y2="0"></line><text dy=".32em" style="text-anchor: end;" x="-9" y="0">4.0</text></g><g class="tick" style="opacity: 1;" transform="translate(0,0)"><line x2="-6" y2="0"></line><text dy=".32em" style="text-anchor: end;" x="-9" y="0">4.5</text></g><path class="domain" d="M-6,0H0V450H-6"></path><text class="label" transform="rotate(-90)" y="6" dy=".71em" style="text-anchor: end;">Price($)</text></g><path transform="translate(100.99199999999999,212.6)" d="M0,3.0901936161855166A3.0901936161855166,3.0901936161855166 0 1,1 0,-3.0901936161855166A3.0901936161855166,3.0901936161855166 0 1,1 0,3.0901936161855166Z" style="fill: #1f77b4; stroke: #1f77b4; stroke-width: 1.5px;"></path><path transform="translate(90.624,189.8)" d="M0,3.0901936161855166A3.0901936161855166,3.0901936161855166 0 1,1 0,-3.0901936161855166A3.0901936161855166,3.0901936161855166 0 1,1 0,3.0901936161855166Z" style="fill: #1f77b4; stroke: #1f77b4; stroke-width: 1.5px;"></path><path transform="translate(99.328,167.1)" d="M0,3.0901936161855166A3.0901936161855166,3.0901936161855166 0 1,1 0,-3.0901936161855166A3.0901936161855166,3.0901936161855166 0 1,1 0,3.0901936161855166Z" style="fill: #1f77b4; stroke: #1f77b4; stroke-width: 1.5px;"></path><path transform="translate(83.84,125.99999999999996)" d="M0,3.0901936161855166A3.0901936161855166,3.0901936161855166 0 1,1 0,-3.0901936161855166A3.0901936161855166,3.0901936161855166 0 1,1 0,3.0901936161855166Z" style="fill: #1f77b4; stroke: #1f77b4; stroke-width: 1.5px;"></path><path transform="translate(150.016,147.40000000000003)" d="M0,3.0901936161855166A3.0901936161855166,3.0901936161855166 0 1,1 0,-3.0901936161855166A3.0901936161855166,3.0901936161855166 0 1,1 0,3.0901936161855166Z" style="fill: #1f77b4; stroke: #1f77b4; stroke-width: 1.5px;"></path><path transform="translate(111.744,142.39999999999998)" d="M0,3.0901936161855166A3.0901936161855166,3.0901936161855166 0 1,1 0,-3.0901936161855166A3.0901936161855166,3.0901936161855166 0 1,1 0,3.0901936161855166Z" style="fill: #1f77b4; stroke: #1f77b4; stroke-width: 1.5px;"></path><path transform="translate(33.408,163.60000000000002)" d="M0,3.0901936161855166A3.0901936161855166,3.0901936161855166 0 1,1 0,-3.0901936161855166A3.0901936161855166,3.0901936161855166 0 1,1 0,3.0901936161855166Z" style="fill: #1f77b4; stroke: #1f77b4; stroke-width: 1.5px;"></path><path transform="translate(175.488,188.6)" d="M0,3.0901936161855166A3.0901936161855166,3.0901936161855166 0 1,1 0,-3.0901936161855166A3.0901936161855166,3.0901936161855166 0 1,1 0,3.0901936161855166Z" style="fill: #1f77b4; stroke: #1f77b4; stroke-width: 1.5px;"></path><path transform="translate(131.328,115.40000000000002)" d="M0,3.0901936161855166A3.0901936161855166,3.0901936161855166 0 1,1 0,-3.0901936161855166A3.0901936161855166,3.0901936161855166 0 1,1 0,3.0901936161855166Z" style="fill: #1f77b4; stroke: #1f77b4; stroke-width: 1.5px;"></path><path transform="translate(140.416,111.39999999999999)" d="M0,3.0901936161855166A3.0901936161855166,3.0901936161855166 0 1,1 0,-3.0901936161855166A3.0901936161855166,3.0901936161855166 0 1,1 0,3.0901936161855166Z" style="fill: #1f77b4; stroke: #1f77b4; stroke-width: 1.5px;"></path><path transform="translate(112.128,164.29999999999998)" d="M0,3.0901936161855166A3.0901936161855166,3.0901936161855166 0 1,1 0,-3.0901936161855166A3.0901936161855166,3.0901936161855166 0 1,1 0,3.0901936161855166Z" style="fill: #1f77b4; stroke: #1f77b4; stroke-width: 1.5px;"></path><path transform="translate(80.512,192.60000000000002)" d="M0,3.0901936161855166A3.0901936161855166,3.0901936161855166 0 1,1 0,-3.0901936161855166A3.0901936161855166,3.0901936161855166 0 1,1 0,3.0901936161855166Z" style="fill: #1f77b4; stroke: #1f77b4; stroke-width: 1.5px;"></path><path transform="translate(154.24,143.10000000000002)" d="M0,3.0901936161855166A3.0901936161855166,3.0901936161855166 0 1,1 0,-3.0901936161855166A3.0901936161855166,3.0901936161855166 0 1,1 0,3.0901936161855166Z" style="fill: #1f77b4; stroke: #1f77b4; stroke-width: 1.5px;"></path><path transform="translate(19.712,116.2)" d="M0,3.0901936161855166A3.0901936161855166,3.0901936161855166 0 1,1 0,-3.0901936161855166A3.0901936161855166,3.0901936161855166 0 1,1 0,3.0901936161855166Z" style="fill: #1f77b4; stroke: #1f77b4; stroke-width: 1.5px;"></path><path transform="translate(148.992,202)" d="M0,3.0901936161855166A3.0901936161855166,3.0901936161855166 0 1,1 0,-3.0901936161855166A3.0901936161855166,3.0901936161855166 0 1,1 0,3.0901936161855166Z" style="fill: #1f77b4; stroke: #1f77b4; stroke-width: 1.5px;"></path><path transform="translate(137.984,194.79999999999998)" d="M0,3.0901936161855166A3.0901936161855166,3.0901936161855166 0 1,1 0,-3.0901936161855166A3.0901936161855166,3.0901936161855166 0 1,1 0,3.0901936161855166Z" style="fill: #1f77b4; stroke: #1f77b4; stroke-width: 1.5px;"></path><path transform="translate(102.912,141.19999999999996)" d="M0,3.0901936161855166A3.0901936161855166,3.0901936161855166 0 1,1 0,-3.0901936161855166A3.0901936161855166,3.0901936161855166 0 1,1 0,3.0901936161855166Z" style="fill: #1f77b4; stroke: #1f77b4; stroke-width: 1.5px;"></path><path transform="translate(148.48,139.50000000000003)" d="M0,3.0901936161855166A3.0901936161855166,3.0901936161855166 0 1,1 0,-3.0901936161855166A3.0901936161855166,3.0901936161855166 0 1,1 0,3.0901936161855166Z" style="fill: #1f77b4; stroke: #1f77b4; stroke-width: 1.5px;"></path><path transform="translate(168.44799999999998,110.10000000000001)" d="M0,3.0901936161855166A3.0901936161855166,3.0901936161855166 0 1,1 0,-3.0901936161855166A3.0901936161855166,3.0901936161855166 0 1,1 0,3.0901936161855166Z" style="fill: #1f77b4; stroke: #1f77b4; stroke-width: 1.5px;"></path><path transform="translate(190.592,166.5)" d="M0,3.0901936161855166A3.0901936161855166,3.0901936161855166 0 1,1 0,-3.0901936161855166A3.0901936161855166,3.0901936161855166 0 1,1 0,3.0901936161855166Z" style="fill: #1f77b4; stroke: #1f77b4; stroke-width: 1.5px;"></path><path transform="translate(178.176,181.6)" d="M0,3.0901936161855166A3.0901936161855166,3.0901936161855166 0 1,1 0,-3.0901936161855166A3.0901936161855166,3.0901936161855166 0 1,1 0,3.0901936161855166Z" style="fill: #1f77b4; stroke: #1f77b4; stroke-width: 1.5px;"></path><path transform="translate(88.19199999999998,171.49999999999997)" d="M0,3.0901936161855166A3.0901936161855166,3.0901936161855166 0 1,1 0,-3.0901936161855166A3.0901936161855166,3.0901936161855166 0 1,1 0,3.0901936161855166Z" style="fill: #1f77b4; stroke: #1f77b4; stroke-width: 1.5px;"></path><path transform="translate(116.224,81.19999999999999)" d="M0,3.0901936161855166A3.0901936161855166,3.0901936161855166 0 1,1 0,-3.0901936161855166A3.0901936161855166,3.0901936161855166 0 1,1 0,3.0901936161855166Z" style="fill: #1f77b4; stroke: #1f77b4; stroke-width: 1.5px;"></path><path transform="translate(114.56,205.90000000000003)" d="M0,3.0901936161855166A3.0901936161855166,3.0901936161855166 0 1,1 0,-3.0901936161855166A3.0901936161855166,3.0901936161855166 0 1,1 0,3.0901936161855166Z" style="fill: #1f77b4; stroke: #1f77b4; stroke-width: 1.5px;"></path><path transform="translate(202.624,116.10000000000001)" d="M0,3.0901936161855166A3.0901936161855166,3.0901936161855166 0 1,1 0,-3.0901936161855166A3.0901936161855166,3.0901936161855166 0 1,1 0,3.0901936161855166Z" style="fill: #1f77b4; stroke: #1f77b4; stroke-width: 1.5px;"></path><path transform="translate(106.624,183.70000000000002)" d="M0,3.0901936161855166A3.0901936161855166,3.0901936161855166 0 1,1 0,-3.0901936161855166A3.0901936161855166,3.0901936161855166 0 1,1 0,3.0901936161855166Z" style="fill: #1f77b4; stroke: #1f77b4; stroke-width: 1.5px;"></path><path transform="translate(217.984,150.09999999999997)" d="M0,3.0901936161855166A3.0901936161855166,3.0901936161855166 0 1,1 0,-3.0901936161855166A3.0901936161855166,3.0901936161855166 0 1,1 0,3.0901936161855166Z" style="fill: #1f77b4; stroke: #1f77b4; stroke-width: 1.5px;"></path><path transform="translate(153.984,194.20000000000002)" d="M0,3.0901936161855166A3.0901936161855166,3.0901936161855166 0 1,1 0,-3.0901936161855166A3.0901936161855166,3.0901936161855166 0 1,1 0,3.0901936161855166Z" style="fill: #1f77b4; stroke: #1f77b4; stroke-width: 1.5px;"></path><path transform="translate(190.20800000000003,133.3)" d="M0,3.0901936161855166A3.0901936161855166,3.0901936161855166 0 1,1 0,-3.0901936161855166A3.0901936161855166,3.0901936161855166 0 1,1 0,3.0901936161855166Z" style="fill: #1f77b4; stroke: #1f77b4; stroke-width: 1.5px;"></path><path transform="translate(110.208,44.400000000000006)" d="M0,3.0901936161855166A3.0901936161855166,3.0901936161855166 0 1,1 0,-3.0901936161855166A3.0901936161855166,3.0901936161855166 0 1,1 0,3.0901936161855166Z" style="fill: #1f77b4; stroke: #1f77b4; stroke-width: 1.5px;"></path><path transform="translate(155.392,127.19999999999997)" d="M0,3.0901936161855166A3.0901936161855166,3.0901936161855166 0 1,1 0,-3.0901936161855166A3.0901936161855166,3.0901936161855166 0 1,1 0,3.0901936161855166Z" style="fill: #1f77b4; stroke: #1f77b4; stroke-width: 1.5px;"></path><path transform="translate(194.944,188.8)" d="M0,3.0901936161855166A3.0901936161855166,3.0901936161855166 0 1,1 0,-3.0901936161855166A3.0901936161855166,3.0901936161855166 0 1,1 0,3.0901936161855166Z" style="fill: #1f77b4; stroke: #1f77b4; stroke-width: 1.5px;"></path><path transform="translate(183.424,129.70000000000002)" d="M0,3.0901936161855166A3.0901936161855166,3.0901936161855166 0 1,1 0,-3.0901936161855166A3.0901936161855166,3.0901936161855166 0 1,1 0,3.0901936161855166Z" style="fill: #1f77b4; stroke: #1f77b4; stroke-width: 1.5px;"></path><path transform="translate(178.432,213.20000000000005)" d="M0,3.0901936161855166A3.0901936161855166,3.0901936161855166 0 1,1 0,-3.0901936161855166A3.0901936161855166,3.0901936161855166 0 1,1 0,3.0901936161855166Z" style="fill: #1f77b4; stroke: #1f77b4; stroke-width: 1.5px;"></path><path transform="translate(176,166.5)" d="M0,3.0901936161855166A3.0901936161855166,3.0901936161855166 0 1,1 0,-3.0901936161855166A3.0901936161855166,3.0901936161855166 0 1,1 0,3.0901936161855166Z" style="fill: #1f77b4; stroke: #1f77b4; stroke-width: 1.5px;"></path><path transform="translate(128.384,158.39999999999998)" d="M0,3.0901936161855166A3.0901936161855166,3.0901936161855166 0 1,1 0,-3.0901936161855166A3.0901936161855166,3.0901936161855166 0 1,1 0,3.0901936161855166Z" style="fill: #1f77b4; stroke: #1f77b4; stroke-width: 1.5px;"></path><path transform="translate(123.392,117.9)" d="M0,3.0901936161855166A3.0901936161855166,3.0901936161855166 0 1,1 0,-3.0901936161855166A3.0901936161855166,3.0901936161855166 0 1,1 0,3.0901936161855166Z" style="fill: #1f77b4; stroke: #1f77b4; stroke-width: 1.5px;"></path><path transform="translate(147.2,151.29999999999998)" d="M0,3.0901936161855166A3.0901936161855166,3.0901936161855166 0 1,1 0,-3.0901936161855166A3.0901936161855166,3.0901936161855166 0 1,1 0,3.0901936161855166Z" style="fill: #1f77b4; stroke: #1f77b4; stroke-width: 1.5px;"></path><path transform="translate(428.672,304.59999999999997)" d="M0,3.0901936161855166A3.0901936161855166,3.0901936161855166 0 1,1 0,-3.0901936161855166A3.0901936161855166,3.0901936161855166 0 1,1 0,3.0901936161855166Z" style="fill: #ff7f0e; stroke: #ff7f0e; stroke-width: 1.5px;"></path><path transform="translate(566.656,326.09999999999997)" d="M0,3.0901936161855166A3.0901936161855166,3.0901936161855166 0 1,1 0,-3.0901936161855166A3.0901936161855166,3.0901936161855166 0 1,1 0,3.0901936161855166Z" style="fill: #ff7f0e; stroke: #ff7f0e; stroke-width: 1.5px;"></path><path transform="translate(606.08,339)" d="M0,3.0901936161855166A3.0901936161855166,3.0901936161855166 0 1,1 0,-3.0901936161855166A3.0901936161855166,3.0901936161855166 0 1,1 0,3.0901936161855166Z" style="fill: #ff7f0e; stroke: #ff7f0e; stroke-width: 1.5px;"></path><path transform="translate(439.68000000000006,376.90000000000003)" d="M0,3.0901936161855166A3.0901936161855166,3.0901936161855166 0 1,1 0,-3.0901936161855166A3.0901936161855166,3.0901936161855166 0 1,1 0,3.0901936161855166Z" style="fill: #ff7f0e; stroke: #ff7f0e; stroke-width: 1.5px;"></path><path transform="translate(469.504,389.90000000000003)" d="M0,3.0901936161855166A3.0901936161855166,3.0901936161855166 0 1,1 0,-3.0901936161855166A3.0901936161855166,3.0901936161855166 0 1,1 0,3.0901936161855166Z" style="fill: #ff7f0e; stroke: #ff7f0e; stroke-width: 1.5px;"></path><path transform="translate(495.36,303.8)" d="M0,3.0901936161855166A3.0901936161855166,3.0901936161855166 0 1,1 0,-3.0901936161855166A3.0901936161855166,3.0901936161855166 0 1,1 0,3.0901936161855166Z" style="fill: #ff7f0e; stroke: #ff7f0e; stroke-width: 1.5px;"></path><path transform="translate(515.2,370.79999999999995)" d="M0,3.0901936161855166A3.0901936161855166,3.0901936161855166 0 1,1 0,-3.0901936161855166A3.0901936161855166,3.0901936161855166 0 1,1 0,3.0901936161855166Z" style="fill: #ff7f0e; stroke: #ff7f0e; stroke-width: 1.5px;"></path><path transform="translate(527.616,351.4)" d="M0,3.0901936161855166A3.0901936161855166,3.0901936161855166 0 1,1 0,-3.0901936161855166A3.0901936161855166,3.0901936161855166 0 1,1 0,3.0901936161855166Z" style="fill: #ff7f0e; stroke: #ff7f0e; stroke-width: 1.5px;"></path><path transform="translate(566.144,365)" d="M0,3.0901936161855166A3.0901936161855166,3.0901936161855166 0 1,1 0,-3.0901936161855166A3.0901936161855166,3.0901936161855166 0 1,1 0,3.0901936161855166Z" style="fill: #ff7f0e; stroke: #ff7f0e; stroke-width: 1.5px;"></path><path transform="translate(514.688,305.5)" d="M0,3.0901936161855166A3.0901936161855166,3.0901936161855166 0 1,1 0,-3.0901936161855166A3.0901936161855166,3.0901936161855166 0 1,1 0,3.0901936161855166Z" style="fill: #ff7f0e; stroke: #ff7f0e; stroke-width: 1.5px;"></path><path transform="translate(592.896,432.3)" d="M0,3.0901936161855166A3.0901936161855166,3.0901936161855166 0 1,1 0,-3.0901936161855166A3.0901936161855166,3.0901936161855166 0 1,1 0,3.0901936161855166Z" style="fill: #ff7f0e; stroke: #ff7f0e; stroke-width: 1.5px;"></path><path transform="translate(554.24,336.2)" d="M0,3.0901936161855166A3.0901936161855166,3.0901936161855166 0 1,1 0,-3.0901936161855166A3.0901936161855166,3.0901936161855166 0 1,1 0,3.0901936161855166Z" style="fill: #ff7f0e; stroke: #ff7f0e; stroke-width: 1.5px;"></path><path transform="translate(506.88,347.79999999999995)" d="M0,3.0901936161855166A3.0901936161855166,3.0901936161855166 0 1,1 0,-3.0901936161855166A3.0901936161855166,3.0901936161855166 0 1,1 0,3.0901936161855166Z" style="fill: #ff7f0e; stroke: #ff7f0e; stroke-width: 1.5px;"></path><path transform="translate(475.008,343)" d="M0,3.0901936161855166A3.0901936161855166,3.0901936161855166 0 1,1 0,-3.0901936161855166A3.0901936161855166,3.0901936161855166 0 1,1 0,3.0901936161855166Z" style="fill: #ff7f0e; stroke: #ff7f0e; stroke-width: 1.5px;"></path><path transform="translate(537.984,388.9)" d="M0,3.0901936161855166A3.0901936161855166,3.0901936161855166 0 1,1 0,-3.0901936161855166A3.0901936161855166,3.0901936161855166 0 1,1 0,3.0901936161855166Z" style="fill: #ff7f0e; stroke: #ff7f0e; stroke-width: 1.5px;"></path><path transform="translate(537.6,402.3)" d="M0,3.0901936161855166A3.0901936161855166,3.0901936161855166 0 1,1 0,-3.0901936161855166A3.0901936161855166,3.0901936161855166 0 1,1 0,3.0901936161855166Z" style="fill: #ff7f0e; stroke: #ff7f0e; stroke-width: 1.5px;"></path><path transform="translate(392.832,343.7)" d="M0,3.0901936161855166A3.0901936161855166,3.0901936161855166 0 1,1 0,-3.0901936161855166A3.0901936161855166,3.0901936161855166 0 1,1 0,3.0901936161855166Z" style="fill: #ff7f0e; stroke: #ff7f0e; stroke-width: 1.5px;"></path><path transform="translate(508.544,367.5)" d="M0,3.0901936161855166A3.0901936161855166,3.0901936161855166 0 1,1 0,-3.0901936161855166A3.0901936161855166,3.0901936161855166 0 1,1 0,3.0901936161855166Z" style="fill: #ff7f0e; stroke: #ff7f0e; stroke-width: 1.5px;"></path><path transform="translate(524.544,337.3)" d="M0,3.0901936161855166A3.0901936161855166,3.0901936161855166 0 1,1 0,-3.0901936161855166A3.0901936161855166,3.0901936161855166 0 1,1 0,3.0901936161855166Z" style="fill: #ff7f0e; stroke: #ff7f0e; stroke-width: 1.5px;"></path><path transform="translate(518.016,344.2)" d="M0,3.0901936161855166A3.0901936161855166,3.0901936161855166 0 1,1 0,-3.0901936161855166A3.0901936161855166,3.0901936161855166 0 1,1 0,3.0901936161855166Z" style="fill: #ff7f0e; stroke: #ff7f0e; stroke-width: 1.5px;"></path><path transform="translate(426.496,332.5)" d="M0,3.0901936161855166A3.0901936161855166,3.0901936161855166 0 1,1 0,-3.0901936161855166A3.0901936161855166,3.0901936161855166 0 1,1 0,3.0901936161855166Z" style="fill: #ff7f0e; stroke: #ff7f0e; stroke-width: 1.5px;"></path><path transform="translate(510.208,411.9)" d="M0,3.0901936161855166A3.0901936161855166,3.0901936161855166 0 1,1 0,-3.0901936161855166A3.0901936161855166,3.0901936161855166 0 1,1 0,3.0901936161855166Z" style="fill: #ff7f0e; stroke: #ff7f0e; stroke-width: 1.5px;"></path><path transform="translate(487.68,259.8)" d="M0,3.0901936161855166A3.0901936161855166,3.0901936161855166 0 1,1 0,-3.0901936161855166A3.0901936161855166,3.0901936161855166 0 1,1 0,3.0901936161855166Z" style="fill: #ff7f0e; stroke: #ff7f0e; stroke-width: 1.5px;"></path><path transform="translate(480.768,367.6)" d="M0,3.0901936161855166A3.0901936161855166,3.0901936161855166 0 1,1 0,-3.0901936161855166A3.0901936161855166,3.0901936161855166 0 1,1 0,3.0901936161855166Z" style="fill: #ff7f0e; stroke: #ff7f0e; stroke-width: 1.5px;"></path><path transform="translate(546.176,362.09999999999997)" d="M0,3.0901936161855166A3.0901936161855166,3.0901936161855166 0 1,1 0,-3.0901936161855166A3.0901936161855166,3.0901936161855166 0 1,1 0,3.0901936161855166Z" style="fill: #ff7f0e; stroke: #ff7f0e; stroke-width: 1.5px;"></path><path transform="translate(564.48,385.6)" d="M0,3.0901936161855166A3.0901936161855166,3.0901936161855166 0 1,1 0,-3.0901936161855166A3.0901936161855166,3.0901936161855166 0 1,1 0,3.0901936161855166Z" style="fill: #ff7f0e; stroke: #ff7f0e; stroke-width: 1.5px;"></path><path transform="translate(464,403.8)" d="M0,3.0901936161855166A3.0901936161855166,3.0901936161855166 0 1,1 0,-3.0901936161855166A3.0901936161855166,3.0901936161855166 0 1,1 0,3.0901936161855166Z" style="fill: #ff7f0e; stroke: #ff7f0e; stroke-width: 1.5px;"></path><path transform="translate(518.4,330.5)" d="M0,3.0901936161855166A3.0901936161855166,3.0901936161855166 0 1,1 0,-3.0901936161855166A3.0901936161855166,3.0901936161855166 0 1,1 0,3.0901936161855166Z" style="fill: #ff7f0e; stroke: #ff7f0e; stroke-width: 1.5px;"></path><path transform="translate(563.84,375.7)" d="M0,3.0901936161855166A3.0901936161855166,3.0901936161855166 0 1,1 0,-3.0901936161855166A3.0901936161855166,3.0901936161855166 0 1,1 0,3.0901936161855166Z" style="fill: #ff7f0e; stroke: #ff7f0e; stroke-width: 1.5px;"></path><path transform="translate(321.024,321.09999999999997)" d="M0,3.0901936161855166A3.0901936161855166,3.0901936161855166 0 1,1 0,-3.0901936161855166A3.0901936161855166,3.0901936161855166 0 1,1 0,3.0901936161855166Z" style="fill: #ff7f0e; stroke: #ff7f0e; stroke-width: 1.5px;"></path><path transform="translate(507.648,335.90000000000003)" d="M0,3.0901936161855166A3.0901936161855166,3.0901936161855166 0 1,1 0,-3.0901936161855166A3.0901936161855166,3.0901936161855166 0 1,1 0,3.0901936161855166Z" style="fill: #ff7f0e; stroke: #ff7f0e; stroke-width: 1.5px;"></path><path transform="translate(465.408,418)" d="M0,3.0901936161855166A3.0901936161855166,3.0901936161855166 0 1,1 0,-3.0901936161855166A3.0901936161855166,3.0901936161855166 0 1,1 0,3.0901936161855166Z" style="fill: #ff7f0e; stroke: #ff7f0e; stroke-width: 1.5px;"></path><path transform="translate(515.456,410.59999999999997)" d="M0,3.0901936161855166A3.0901936161855166,3.0901936161855166 0 1,1 0,-3.0901936161855166A3.0901936161855166,3.0901936161855166 0 1,1 0,3.0901936161855166Z" style="fill: #ff7f0e; stroke: #ff7f0e; stroke-width: 1.5px;"></path><path transform="translate(491.1360000000001,311.50000000000006)" d="M0,3.0901936161855166A3.0901936161855166,3.0901936161855166 0 1,1 0,-3.0901936161855166A3.0901936161855166,3.0901936161855166 0 1,1 0,3.0901936161855166Z" style="fill: #ff7f0e; stroke: #ff7f0e; stroke-width: 1.5px;"></path><path transform="translate(494.08000000000004,342)" d="M0,3.0901936161855166A3.0901936161855166,3.0901936161855166 0 1,1 0,-3.0901936161855166A3.0901936161855166,3.0901936161855166 0 1,1 0,3.0901936161855166Z" style="fill: #ff7f0e; stroke: #ff7f0e; stroke-width: 1.5px;"></path><path transform="translate(495.488,345.7)" d="M0,3.0901936161855166A3.0901936161855166,3.0901936161855166 0 1,1 0,-3.0901936161855166A3.0901936161855166,3.0901936161855166 0 1,1 0,3.0901936161855166Z" style="fill: #ff7f0e; stroke: #ff7f0e; stroke-width: 1.5px;"></path><path transform="translate(460.032,338.3)" d="M0,3.0901936161855166A3.0901936161855166,3.0901936161855166 0 1,1 0,-3.0901936161855166A3.0901936161855166,3.0901936161855166 0 1,1 0,3.0901936161855166Z" style="fill: #ff7f0e; stroke: #ff7f0e; stroke-width: 1.5px;"></path><path transform="translate(445.824,294)" d="M0,3.0901936161855166A3.0901936161855166,3.0901936161855166 0 1,1 0,-3.0901936161855166A3.0901936161855166,3.0901936161855166 0 1,1 0,3.0901936161855166Z" style="fill: #ff7f0e; stroke: #ff7f0e; stroke-width: 1.5px;"></path><path transform="translate(460.41600000000005,391.6)" d="M0,3.0901936161855166A3.0901936161855166,3.0901936161855166 0 1,1 0,-3.0901936161855166A3.0901936161855166,3.0901936161855166 0 1,1 0,3.0901936161855166Z" style="fill: #ff7f0e; stroke: #ff7f0e; stroke-width: 1.5px;"></path><path transform="translate(552.576,367.4)" d="M0,3.0901936161855166A3.0901936161855166,3.0901936161855166 0 1,1 0,-3.0901936161855166A3.0901936161855166,3.0901936161855166 0 1,1 0,3.0901936161855166Z" style="fill: #ff7f0e; stroke: #ff7f0e; stroke-width: 1.5px;"></path><g class="legend" transform="translate(0,0)"><rect x="622" width="18" height="18" style="fill: #1f77b4;"></rect><text x="616" y="9" dy=".35em" style="text-anchor: end;">pears</text></g><g class="legend" transform="translate(0,20)"><rect x="622" width="18" height="18" style="fill: #ff7f0e;"></rect><text x="616" y="9" dy=".35em" style="text-anchor: end;">blueberries</text></g><defs><style type="text/css"><![CDATA[        svg {            font-family: serif;            font-size: 10pt;            fill: black;            stroke-width='20'        }                .axis path,        .axis line {            fill: none;            stroke: #000;            shape-rendering: crispEdges;        }                .dot {            stroke: #000;        }    ]]></style></defs></g></svg>